<?xml version="1.0" encoding="UTF-8" standalone="no"?>
<svg
   viewBox="0 0 960 960"
   version="1.1"
   id="svg1"
   sodipodi:docname="icon.svg"
   width="960"
   height="960"
   xml:space="preserve"
   inkscape:version="1.4.2 (ebf0e940d0, 2025-05-08)"
   inkscape:export-filename="icon128.png"
   inkscape:export-xdpi="12.8"
   inkscape:export-ydpi="12.8"
   xmlns:inkscape="http://www.inkscape.org/namespaces/inkscape"
   xmlns:sodipodi="http://sodipodi.sourceforge.net/DTD/sodipodi-0.dtd"
   xmlns="http://www.w3.org/2000/svg"
   xmlns:svg="http://www.w3.org/2000/svg"><defs
     id="defs1" /><sodipodi:namedview
     id="namedview1"
     pagecolor="#ffffff"
     bordercolor="#000000"
     borderopacity="0.25"
     inkscape:showpageshadow="2"
     inkscape:pageopacity="0.0"
     inkscape:pagecheckerboard="0"
     inkscape:deskcolor="#d1d1d1"
     inkscape:zoom="0.70710678"
     inkscape:cx="397.39401"
     inkscape:cy="671.75144"
     inkscape:window-width="2560"
     inkscape:window-height="1403"
     inkscape:window-x="0"
     inkscape:window-y="0"
     inkscape:window-maximized="1"
     inkscape:current-layer="svg1" /><!--!Font Awesome Free 7.1.0 by @fontawesome - https://fontawesome.com License - https://fontawesome.com/license/free Copyright 2025 Fonticons, Inc.--><circle
     style="display:inline;fill:#bf1133;fill-opacity:1;stroke:none;stroke-width:82.0037;stroke-linecap:square;stroke-linejoin:round;stroke-dasharray:none;stroke-opacity:1;paint-order:fill markers stroke"
     id="circle8"
     cx="480"
     cy="480"
     r="480"
     inkscape:label="outercircle" /><circle
     style="display:inline;fill:#ff1744;fill-opacity:1;stroke:none;stroke-width:71.0699;stroke-linecap:square;stroke-linejoin:round;stroke-dasharray:none;stroke-opacity:1;paint-order:fill markers stroke"
     id="path2-0"
     cx="480"
     cy="480"
     r="416"
     inkscape:label="innercircle" /><rect
     style="display:inline;opacity:1;fill:#bf1133;fill-opacity:1;stroke:none;stroke-width:402.156;stroke-linecap:round;stroke-linejoin:round;stroke-dasharray:none;stroke-opacity:1;paint-order:markers stroke fill"
     id="rect12"
     width="558.81531"
     height="305.55847"
     x="41.169083"
     y="321.98233"
     inkscape:label="iconfillin" /><g
     id="g2"
     inkscape:label="icon"
     transform="translate(-366.49272,-268.32516)"
     style="display:inline"><path
       d="m 544.70637,496.34747 c -35.3,0 -64,28.7 -64,64 v 320 c 0,35.3 28.7,63.99996 64,63.99996 h 320 c 35.3,0 63.9999,-28.69996 63.9999,-63.99996 v -320 c 0,-35.3 -28.6999,-64 -63.9999,-64 z m 64,80 c 26.5,0 48,21.5 48,48 0,26.5 -21.5,48 -48,48 -26.5,0 -48,-21.5 -48,-48 0,-26.5 21.5,-48 48,-48 z m 144,112 c 8.4,0 16.1,4.4 20.5,11.5 l 88,144 c 4.5,7.4 4.7,16.7 0.5,24.3 -4.2,7.6 -12.3,12.2 -21,12.2 h -272 c -8.9,0 -17.2,-5 -21.3,-12.9 -4.1,-7.9 -3.5,-17.5 1.6,-24.8 l 56,-80 c 4.5,-6.4 11.8,-10.2 19.7,-10.2 7.9,0 15.2,3.8 19.7,10.2 l 26.4,37.8 61.4,-100.5 c 4.4,-7.1 12.1,-11.5 20.5,-11.5 z"
       id="path1-2"
       inkscape:label="image"
       style="display:none" /><g
       id="g1"
       transform="matrix(0.75,0,0,0.75,352.25013,283.00781)"
       inkscape:label="cloud"
       style="display:none"><path
         d="m 717.52342,969.74881 c -79.5,0 -144.00004,-64.5 -144.00004,-144 0,-63.4 41,-117.2 97.90004,-136.5 -1.3,-7.7 -1.9,-15.5 -1.9,-23.5 0,-79.5 64.5,-144 144,-144 55.39997,0 103.49997,31.3 127.59998,77.1 14.2,-8.3 30.8,-13.1 48.4,-13.1 53,0 96,43 96,96 0,15.7 -3.8,30.6 -10.5,43.7 44,20.3 74.5,64.7 74.5,116.3 0,70.7 -57.3,128 -128,128 z m 160.99997,-289 c -9.4,-9.4 -24.6,-9.4 -33.9,0 l -71.99997,72 c -9.4,9.4 -9.4,24.6 0,33.9 9.4,9.3 24.6,9.4 33.9,0 l 31,-31 v 102.1 c 0,13.3 10.69997,24 23.99997,24 13.3,0 24,-10.7 24,-24 v -102.1 l 31,31 c 9.4,9.4 24.60001,9.4 33.90001,0 9.3,-9.4 9.4,-24.6 0,-33.9 l -72.00001,-72 z"
         id="path1-5"
         style="stroke:#ffffff;stroke-width:96;stroke-dasharray:none;stroke-opacity:1"
         inkscape:label="outline" /><path
         d="m 717.52342,969.74881 c -79.5,0 -144.00004,-64.5 -144.00004,-144 0,-63.4 41,-117.2 97.90004,-136.5 -1.3,-7.7 -1.9,-15.5 -1.9,-23.5 0,-79.5 64.5,-144 144,-144 55.39997,0 103.49997,31.3 127.59998,77.1 14.2,-8.3 30.8,-13.1 48.4,-13.1 53,0 96,43 96,96 0,15.7 -3.8,30.6 -10.5,43.7 44,20.3 74.5,64.7 74.5,116.3 0,70.7 -57.3,128 -128,128 z m 160.99997,-289 c -9.4,-9.4 -24.6,-9.4 -33.9,0 l -71.99997,72 c -9.4,9.4 -9.4,24.6 0,33.9 9.4,9.3 24.6,9.4 33.9,0 l 31,-31 v 102.1 c 0,13.3 10.69997,24 23.99997,24 13.3,0 24,-10.7 24,-24 v -102.1 l 31,31 c 9.4,9.4 24.60001,9.4 33.90001,0 9.3,-9.4 9.4,-24.6 0,-33.9 l -72.00001,-72 z"
         id="path1"
         style="stroke:none;stroke-width:100;stroke-dasharray:none;stroke-opacity:1"
         inkscape:label="icon" /></g><path
       id="path3"
       inkscape:label="final"
       d="m 546.79446,496.34747 c -35.3,0 -64,28.7 -64,64 v 320 c 0,35.3 28.7,64 64,64 h 208 c -4.10317,-13.31303 -6.31445,-27.42845 -6.31445,-42.02734 0,-7.46613 0.57468,-14.80443 1.68164,-21.97266 H 570.79446 c -8.9,0 -17.20078,-5.00039 -21.30078,-12.90039 -4.1,-7.9 -3.49844,-17.49883 1.60156,-24.79883 l 56,-80 c 4.5,-6.4 11.79922,-10.20117 19.69922,-10.20117 7.9,0 15.19922,3.80117 19.69922,10.20117 l 26.40039,37.79883 61.40039,-100.5 c 4.4,-7.1 12.1,-11.5 20.5,-11.5 v -0.0996 c 8.4,0 16.1,4.4 20.5,11.5 l 45.45703,74.38477 C 824.35382,710.2871 870.30898,657.0272 930.79446,642.33966 v -81.99219 c 0,-35.3 -28.7,-64 -64,-64 z m 64,80 c 26.5,0 48,21.5 48,48 0,26.5 -21.5,48 -48,48 -26.5,0 -48,-21.5 -48,-48 0,-26.5 21.5,-48 48,-48 z m 353.68555,97.97266 c -59.625,0 -108,48.375 -108,108 0,6 0.45078,11.85 1.42578,17.625 -42.67503,14.475 -73.42578,54.825 -73.42578,102.375 0,59.625 48.375,107.99997 108,107.99997 H 1120.48 c 53.025,0 96,-42.97497 96,-95.99997 0,-38.7 -22.875,-72.00157 -55.875,-87.22657 5.025,-9.825 7.875,-20.99843 7.875,-32.77343 0,-39.75 -32.25,-72 -72,-72 -13.2,0 -25.6488,3.59922 -36.2988,9.82421 -18.075,-34.35 -54.1512,-57.82421 -95.70119,-57.82421 z m 36.00979,113.96093 c 4.6031,0 9.2152,1.76407 12.7402,5.28907 h -0.074 l 54,54 c 7.05,6.975 6.975,18.37382 0,25.42382 -6.975,7.05 -18.3758,7.05 -25.4258,0 l -23.25,-23.25 v 76.57618 c 0,9.975 -8.025,18 -18,18 -9.97499,0 -17.99999,-8.025 -17.99999,-18 v -76.57618 l -23.25,23.25 c -6.975,7.05 -18.37383,6.975 -25.42383,0 -7.05,-6.975 -7.05,-18.37382 0,-25.42382 l 54,-54 c 3.4875,-3.525 8.08047,-5.28907 12.68362,-5.28907 z"
       style="fill:#ffffff;fill-opacity:1;stroke:#bf1133;stroke-width:96;stroke-linecap:round;stroke-linejoin:round;stroke-dasharray:none;stroke-opacity:1;paint-order:markers stroke fill" /></g><g
     id="g10"
     inkscape:label="colors"><rect
       style="opacity:1;fill:#ff1744;fill-opacity:1;stroke:none;stroke-width:41.8763;stroke-linecap:round;stroke-linejoin:round;stroke-dasharray:none;stroke-opacity:0.25;paint-order:markers stroke fill"
       id="rect8"
       width="100"
       height="300"
       x="-200"
       y="0" /><rect
       style="opacity:1;fill:#000000;fill-opacity:0.25;stroke:none;stroke-width:34.1919;stroke-linecap:round;stroke-linejoin:round;stroke-dasharray:none;stroke-opacity:0.25;paint-order:markers stroke fill"
       id="rect9"
       width="100"
       height="200"
       x="-200"
       y="100" /><rect
       style="opacity:1;fill:#000000;fill-opacity:0.25;stroke:none;stroke-width:24.1773;stroke-linecap:round;stroke-linejoin:round;stroke-dasharray:none;stroke-opacity:0.25;paint-order:markers stroke fill"
       id="rect10"
       width="100"
       height="100"
       x="-200"
       y="200" /></g></svg>
